<?xml version="1.0" encoding="iso-8859-1"?>
<!-- Generator: Adobe Illustrator 18.0.0, SVG Export Plug-In . SVG Version: 6.00 Build 0)  -->
<!DOCTYPE svg PUBLIC "-//W3C//DTD SVG 1.1//EN" "http://www.w3.org/Graphics/SVG/1.1/DTD/svg11.dtd">
<svg version="1.1" id="Capa_1" xmlns="http://www.w3.org/2000/svg" xmlns:xlink="http://www.w3.org/1999/xlink" x="0px" y="0px"
	 viewBox="0 0 263.807 263.807" style="enable-background:new 0 0 263.807 263.807;" xml:space="preserve">
<g>
	<path d="M146.959,101.869l-19.848,19.846l17.871,17.873c3.512,3.513,5.447,8.182,5.447,13.146c0.001,4.964-1.933,9.63-5.446,13.142
		l-64.442,64.444c-7.248,7.248-19.042,7.249-26.289,0.001l-17.873-17.875c-3.51-3.509-5.443-8.174-5.442-13.137
		c0-4.964,1.936-9.634,5.448-13.146l51.166-51.166l-19.847-19.846l-51.166,51.166c-8.813,8.814-13.667,20.53-13.667,32.99
		c-0.001,12.462,4.852,24.178,13.664,32.986l17.873,17.874c9.095,9.094,21.042,13.641,32.989,13.641
		c11.948,0,23.896-4.547,32.991-13.642l64.441-64.442c8.816-8.812,13.67-20.528,13.669-32.991
		c-0.001-12.461-4.854-24.176-13.666-32.99L146.959,101.869z"/>
	<path d="M247.273,31.538l-17.872-17.873C220.589,4.853,208.873,0,196.41,0c-12.462,0-24.178,4.854-32.987,13.665L98.974,78.111
		c-8.813,8.811-13.665,20.527-13.665,32.99c0.001,12.465,4.855,24.182,13.668,32.988l17.873,17.873l19.847-19.846l-17.876-17.876
		c-3.511-3.509-5.445-8.175-5.445-13.14c0-4.965,1.933-9.632,5.443-13.142l64.45-64.448c3.51-3.51,8.177-5.443,13.142-5.443
		c4.965,0,9.633,1.934,13.144,5.444l17.873,17.875c3.51,3.509,5.443,8.174,5.442,13.138c0,4.965-1.935,9.633-5.445,13.145
		l-51.17,51.167l19.846,19.847l51.171-51.168c8.812-8.813,13.665-20.529,13.666-32.989
		C260.938,52.063,256.085,40.347,247.273,31.538z"/>
</g>
<g>
</g>
<g>
</g>
<g>
</g>
<g>
</g>
<g>
</g>
<g>
</g>
<g>
</g>
<g>
</g>
<g>
</g>
<g>
</g>
<g>
</g>
<g>
</g>
<g>
</g>
<g>
</g>
<g>
</g>
</svg>
